<svg width="9.671875" height="20.000000" viewBox="0 0 9.67188 20" fill="none" xmlns="http://www.w3.org/2000/svg" xmlns:xlink="http://www.w3.org/1999/xlink">
	<desc>
			Created with Pixso.
	</desc>
	<defs/>
	<path id="Vector 17" d="M0.277344 1.66406L7.67188 10.0078L7.67188 10.0078L0.257812 18.3281L1.75 19.6602L9.16406 11.3359Q9.41406 11.0586 9.54297 10.707Q9.67188 10.3711 9.67188 10.0078Q9.67188 9.64844 9.54688 9.30859Q9.41406 8.95703 9.16797 8.67969L1.77344 0.339844L0.277344 1.66406ZM1.77344 0.367188L1.77344 0.339844C1.40234 -0.078125 0.78125 -0.117188 0.363281 0.253906C-0.0585938 0.625 -0.09375 1.24609 0.277344 1.66406L0.304688 1.66797L1.77344 0.367188ZM0.285156 18.3281L0.257812 18.3281C-0.113281 18.7461 -0.078125 19.3672 0.339844 19.7422C0.757812 20.1133 1.37891 20.0781 1.75 19.6602L1.75 19.6328L0.285156 18.3281Z" fill="#242424" fill-opacity="1.000000" fill-rule="evenodd"/>
</svg>
