<svg width="52.500000" height="57.953125" viewBox="0 0 52.5 57.9531" fill="none" xmlns="http://www.w3.org/2000/svg" xmlns:xlink="http://www.w3.org/1999/xlink">
	<desc>
			Created with Pixso.
	</desc>
	<defs/>
	<path id="Vector" d="M22.3164 1.05078C23.5156 0.363281 24.8711 0 26.25 0C27.6289 0 28.9844 0.363281 30.1836 1.05078L30.1875 1.05469L48.5625 11.5547C49.5352 12.1172 50.3711 12.875 51.0234 13.7812C51.1797 13.9414 51.3203 14.1211 51.4375 14.3242C51.5391 14.5 51.6172 14.6797 51.6758 14.8672C52.2148 15.9531 52.5 17.1484 52.5 18.3672L52.5 39.3711C52.5 40.7539 52.1328 42.1094 51.4414 43.3047C50.75 44.5 49.7578 45.4922 48.5625 46.1836L48.5508 46.1914L30.1875 56.6836L30.1836 56.6875C29.3516 57.168 28.4414 57.4883 27.4961 57.6406C27.125 57.8398 26.7031 57.9531 26.25 57.9531C25.7969 57.9531 25.375 57.8398 25.0039 57.6406C24.0586 57.4883 23.1484 57.168 22.3164 56.6875L22.3125 56.6836L3.94922 46.1914L3.9375 46.1836C2.74219 45.4922 1.75 44.5 1.05859 43.3047C0.367188 42.1094 0 40.7539 0 39.3711L0 18.3672C0 17.1523 0.285156 15.9531 0.824219 14.8672C0.882812 14.6836 0.960938 14.5 1.0625 14.3242C1.17969 14.1211 1.32031 13.9414 1.48047 13.7812C2.12891 12.875 2.96484 12.1172 3.9375 11.5547L3.94922 11.5508L22.3164 1.05078ZM28.875 51.3867L45.9375 41.6367L45.9414 41.6367C46.3398 41.4062 46.668 41.0742 46.8984 40.6797C47.1289 40.2812 47.25 39.8281 47.25 39.3672L47.25 19.7812L28.875 30.4102L28.875 51.3867ZM23.625 30.4102L23.625 51.3867L6.5625 41.6367L6.55859 41.6367C6.16016 41.4062 5.83203 41.0742 5.60156 40.6797C5.37109 40.2812 5.25 39.8281 5.25 39.3672L5.25 19.7812L23.625 30.4102ZM27.5625 5.60156L44.5234 15.293L26.25 25.8633L7.97656 15.293L24.9258 5.60938L24.9375 5.60156C25.3359 5.37109 25.7891 5.25 26.25 5.25C26.7109 5.25 27.1641 5.37109 27.5625 5.60156Z" fill="#242424" fill-opacity="1.000000" fill-rule="evenodd"/>
</svg>
