<svg width="32.000000" height="32.000000" viewBox="0 0 32 32" fill="none" xmlns="http://www.w3.org/2000/svg" xmlns:xlink="http://www.w3.org/1999/xlink">
	<desc>
			Created with Pixso.
	</desc>
	<defs>
		<clipPath id="clip2415_35502">
			<rect id="Оплата при получении иконка" width="32.000000" height="32.000000" fill="white" fill-opacity="0"/>
		</clipPath>
	</defs>
	<rect id="Оплата при получении иконка" width="32.000000" height="32.000000" fill="#FFFFFF" fill-opacity="0"/>
	<g clip-path="url(#clip2415_35502)">
		<path id="Vector" d="M18.1523 20.6875L3.85156 20.6328" stroke="#FD9B17" stroke-opacity="1.000000" stroke-width="1.375000"/>
		<path id="Vector" d="M17.4922 10.3789C17.6641 10.1758 17.7578 9.90625 17.7578 9.62109C17.7539 9.33984 17.6523 9.07031 17.4766 8.87109C17.2969 8.67188 17.0586 8.5625 16.8125 8.56641C16.5625 8.57031 16.3242 8.68359 16.1523 8.88672C15.9805 9.08594 15.8828 9.35938 15.8867 9.64062C15.8906 9.92578 15.9922 10.1953 16.168 10.3906C16.3477 10.5898 16.5859 10.6992 16.832 10.6992C17.082 10.6953 17.3164 10.582 17.4922 10.3789Z" stroke="#5FA963" stroke-opacity="1.000000" stroke-width="1.375000"/>
		<path id="Vector" d="M27.8164 10.3867C27.9922 10.1875 28.0938 9.91797 28.0977 9.63672C28.0977 9.49609 28.0742 9.35547 28.0312 9.22656C27.9883 9.09766 27.9219 8.98047 27.8359 8.87891C27.75 8.77734 27.6523 8.69922 27.5391 8.64453C27.4297 8.58984 27.3086 8.55859 27.1875 8.55859C26.9453 8.55469 26.707 8.66406 26.5312 8.86328C26.3594 9.05859 26.2578 9.33203 26.2539 9.61328C26.2539 9.75391 26.2734 9.89062 26.3203 10.0234C26.3633 10.1523 26.4297 10.2695 26.5156 10.3711C26.5977 10.4688 26.6992 10.5508 26.8125 10.6055C26.9219 10.6602 27.043 10.6875 27.1641 10.6914C27.4062 10.6914 27.6406 10.582 27.8164 10.3867Z" stroke="#5FA963" stroke-opacity="1.000000" stroke-width="1.375000"/>
		<path id="Vector" d="M6.84375 10.3125L7.72656 10.5117C8.01562 10.582 8.06641 10.7305 7.875 10.9609L5.38672 14.0273C5.35547 14.0664 5.3125 14.1016 5.26562 14.1211C5.21875 14.1445 5.16797 14.1562 5.11328 14.1562C5.0625 14.1562 5.01172 14.1406 4.96484 14.1172C4.91797 14.0938 4.875 14.0625 4.84375 14.0195L2.44531 10.8203C2.30859 10.6445 2.35156 10.5273 2.57422 10.4766L3.75781 10.2383C3.88672 10.2109 4 10.1367 4.07422 10.0312C4.15234 9.92188 4.18359 9.78906 4.16406 9.66016C3.62891 6.11328 7.12109 4.55078 9.90625 5.69922C10.1523 5.80078 10.3477 5.98828 10.4609 6.22656C10.5703 6.46484 10.5859 6.73828 10.5039 6.99219C10.4219 7.24219 10.2461 7.45703 10.0156 7.58594C9.78125 7.71484 9.50781 7.75 9.25 7.6875C8.52344 7.50391 7.75391 7.47656 6.94922 7.60547C6.63281 7.65625 6.34375 7.8125 6.13281 8.05078C5.92188 8.29297 5.79688 8.59766 5.78516 8.91797C5.77344 9.23438 5.87109 9.55078 6.06641 9.80469C6.25781 10.0586 6.53516 10.2383 6.84375 10.3125Z" fill="#455A64" fill-opacity="1.000000" fill-rule="nonzero"/>
		<path id="Vector" d="M30.2422 12.9883C30.2422 13.1875 30.1641 13.3828 30.0195 13.5273C29.875 13.668 29.6797 13.75 29.4766 13.7461L14.4922 13.6953C14.3906 13.6953 14.293 13.6758 14.1992 13.6367C14.1055 13.5977 14.0234 13.5391 13.9531 13.4688C13.8828 13.3984 13.8242 13.3125 13.7891 13.2227C13.75 13.1289 13.7305 13.0312 13.7305 12.9297L13.7539 6.23438C13.7539 6.03125 13.8359 5.83594 13.9805 5.69531C14.1211 5.55078 14.3164 5.47266 14.5195 5.47266L29.5078 5.52344C29.6055 5.52344 29.707 5.54688 29.8008 5.58594C29.8906 5.62109 29.9766 5.67969 30.0469 5.75C30.1172 5.82031 30.1719 5.90625 30.2109 6C30.25 6.08984 30.2695 6.19141 30.2656 6.28906L30.2422 12.9883ZM16.832 10.6953C17.082 10.6953 17.3164 10.5781 17.4922 10.3789C17.6641 10.1758 17.7617 9.90234 17.7578 9.62109C17.7539 9.33984 17.6523 9.06641 17.4766 8.87109C17.2969 8.67188 17.0586 8.5625 16.8125 8.56641C16.5625 8.56641 16.3281 8.68359 16.1523 8.88281C15.9805 9.08594 15.8828 9.35938 15.8867 9.64062C15.8906 9.92188 15.9922 10.1914 16.168 10.3906C16.3477 10.5898 16.5859 10.6992 16.832 10.6953ZM27.1641 10.6875C27.4062 10.6914 27.6445 10.582 27.8164 10.3867C27.9922 10.1875 28.0938 9.91797 28.0977 9.63672C28.0977 9.49609 28.0781 9.35547 28.0312 9.22656C27.9883 9.09766 27.9219 8.97656 27.8359 8.87891C27.7539 8.77734 27.6523 8.69922 27.5391 8.64453C27.4297 8.58984 27.3086 8.55859 27.1875 8.55859C26.9453 8.55469 26.707 8.66406 26.5352 8.86328C26.3594 9.05859 26.2578 9.32812 26.2539 9.61328C26.2539 9.75391 26.2734 9.89062 26.3203 10.0195C26.3633 10.1523 26.4297 10.2695 26.5156 10.3711C26.5977 10.4688 26.6992 10.5508 26.8125 10.6055C26.9219 10.6602 27.043 10.6875 27.1641 10.6875Z" fill="#81C784" fill-opacity="1.000000" fill-rule="nonzero"/>
		<path id="Vector" d="M16.832 10.6953C16.3164 10.6992 15.8945 10.2266 15.8867 9.64062C15.8828 9.05078 16.293 8.57031 16.8125 8.56641C17.3281 8.55859 17.75 9.03125 17.7578 9.62109C17.7617 10.207 17.3516 10.6914 16.832 10.6953Z" fill="#3D8A41" fill-opacity="1.000000" fill-rule="evenodd"/>
		<path id="Vector" d="M27.1641 10.6914C26.6523 10.6836 26.2461 10.2031 26.2539 9.61328C26.2617 9.02344 26.6797 8.55469 27.1875 8.55859C27.6953 8.56641 28.1055 9.04688 28.0977 9.63672C28.0898 10.2227 27.6719 10.6953 27.1641 10.6914Z" fill="#3D8A41" fill-opacity="1.000000" fill-rule="evenodd"/>
		<path id="Vector" d="M18.1484 20.6875L3.84766 20.6328C3.48828 19.5859 3.44922 18.5977 3.73828 17.6641C3.78125 17.5273 3.86719 17.4062 3.98047 17.3242C4.09766 17.2383 4.23438 17.1953 4.37891 17.1953L17.7109 17.2578C17.8398 17.2578 17.9688 17.3008 18.0703 17.3828C18.1758 17.4648 18.25 17.582 18.2812 17.7109C18.5352 18.8164 18.4922 19.8086 18.1484 20.6875Z" fill="#FFAA2E" fill-opacity="1.000000" fill-rule="nonzero"/>
		<path id="Vector" d="M27.5625 23.0117L27.3633 25.4883C27.3516 25.6523 27.2812 25.8047 27.1719 25.9258C25.7422 27.4727 23.918 27.9648 21.707 27.4062C21.457 27.3359 21.2383 27.1758 21.1016 26.957C20.9648 26.7383 20.9141 26.4727 20.9648 26.2188C21.0117 25.9648 21.1562 25.7383 21.3672 25.5859C21.5742 25.4375 21.8359 25.3711 22.0898 25.4023C23.1055 25.5469 24.0742 25.4688 25 25.1758C25.3047 25.0781 25.5664 24.875 25.7344 24.6016C25.8984 24.3242 25.9648 24 25.9102 23.6836C25.8594 23.3672 25.6914 23.082 25.4453 22.8789C25.1992 22.6758 24.8867 22.5703 24.5664 22.5781C24.3281 22.582 24.125 22.5703 23.9531 22.5391C23.9062 22.5273 23.8633 22.5039 23.8281 22.4727C23.793 22.4414 23.7656 22.3984 23.75 22.3555C23.7344 22.3086 23.7266 22.2617 23.7344 22.2148C23.7422 22.168 23.7617 22.1211 23.7891 22.082L26.2031 18.9609C26.2344 18.918 26.2773 18.8867 26.3281 18.8633C26.375 18.8398 26.4297 18.8281 26.4805 18.8281C26.5352 18.8281 26.5898 18.8438 26.6367 18.8672C26.6836 18.8906 26.7266 18.9258 26.7578 18.9688L29.2148 22.2148C29.4062 22.4727 29.3398 22.6094 29.0195 22.6328L27.8711 22.7109C27.6797 22.7188 27.5781 22.8203 27.5625 23.0117Z" fill="#455A64" fill-opacity="1.000000" fill-rule="nonzero"/>
		<path id="Vector" d="M3.85156 20.6328L18.1523 20.6875L17.8477 27.5273C17.8359 27.8906 17.6797 28.2344 17.418 28.4844C17.1562 28.7344 16.8086 28.875 16.4453 28.875L5.55078 28.8672C5.18359 28.8711 4.83203 28.7305 4.57031 28.4766C4.30469 28.2227 4.14844 27.8789 4.13281 27.5156L3.85156 20.6328Z" fill="#FB8C00" fill-opacity="1.000000" fill-rule="nonzero"/>
		<path id="₽" d="M20 10.3008L20 9.84375L22.0391 9.84375L22.0391 10.3008L20 10.3008ZM20 11.1914L20 10.7852L22.4531 10.7852L22.4531 11.1914L20 11.1914ZM20.6484 12.2305L20.6484 7L22.4453 7C22.6875 7 22.9023 7.04688 23.0938 7.14062C23.2852 7.23438 23.4492 7.35938 23.582 7.52344C23.7188 7.67969 23.8203 7.85547 23.8906 8.05469C23.9648 8.24609 24 8.44141 24 8.64453C24 8.92578 23.9414 9.19922 23.8242 9.45312C23.707 9.70312 23.5352 9.90625 23.3086 10.0664C23.0859 10.2227 22.8164 10.3008 22.4961 10.3008L21.1641 10.3008L21.1641 12.2305L20.6484 12.2305ZM21.1641 9.84375L22.4688 9.84375C22.707 9.84375 22.9023 9.78516 23.0508 9.67578C23.2031 9.5625 23.3125 9.41406 23.3828 9.23047C23.4492 9.05078 23.4844 8.85547 23.4844 8.64453C23.4844 8.42578 23.4414 8.22656 23.3594 8.04688C23.2812 7.86328 23.1602 7.72266 23 7.61719C22.8398 7.51172 22.6484 7.45703 22.418 7.45703L21.1641 7.45703L21.1641 9.84375Z" fill="#3D8A41" fill-opacity="1.000000" fill-rule="nonzero"/>
	</g>
</svg>
