<svg width="48.007812" height="32.042969" viewBox="0 0 48.0078 32.043" fill="none" xmlns="http://www.w3.org/2000/svg" xmlns:xlink="http://www.w3.org/1999/xlink">
	<desc>
			Created with Pixso.
	</desc>
	<defs/>
	<path id="Union" d="M48.0078 2.29688L48.0078 8.52734L48.0078 8.52734L48.0078 29.9023C47.3203 31.3125 45.9062 32.0195 43.7578 32.0273C30.3359 32.0508 16.9141 32.0469 3.48828 32.0078C1.6875 32.0078 0.609375 31.3047 0.0078125 29.7773L0.0078125 19.2656L0.0078125 19.2656L0.0078125 4.04688Q-0.0859375 1.96094 0.914062 0.949219Q1.84766 0 3.74609 0Q24.1484 0.0273438 44.5078 0.0195312Q45.9297 0.0195312 46.8438 0.699219Q47.6016 1.26562 48.0078 2.29688ZM8.32812 17.7773L8.32812 17.7773L10.7578 17.7109C10.7109 17.8164 10.6914 17.9023 10.6992 17.9766C10.6914 17.9023 10.7109 17.8164 10.7578 17.7148C11.0234 17.2422 11.043 16.8477 10.8164 16.5273C10.6445 16.2812 10.3164 16.1406 9.83984 16.1055Q8.49219 16.0039 8.17578 16.5273Q7.91797 16.9531 8.32812 17.7773ZM12.6758 17.918L12.6797 17.918C13.293 17.4102 13.6641 16.7891 13.7969 16.0547L13.7969 16.0547Q14.2031 14.9375 13.8125 14.4531Q13.6719 14.2773 13.4297 14.1836C12.9219 13.9961 12.5547 14.1328 12.3281 14.5977Q12.2305 14.7969 12.1641 15.0117Q11.7891 16.2734 12.6758 17.918ZM10.9648 11.9531C10.957 11.7773 10.8789 11.6094 10.7422 11.4883C10.6055 11.3633 10.4219 11.3008 10.2344 11.3047L8.67578 11.3438C8.48828 11.3477 8.30859 11.4219 8.17969 11.5508C8.05078 11.6797 7.98047 11.8516 7.98438 12.0273L8.05078 14.4375C8.05859 14.6133 8.13672 14.7812 8.27344 14.9023C8.41016 15.0273 8.59375 15.0898 8.78125 15.0859L10.3398 15.0469C10.5273 15.043 10.707 14.9688 10.8359 14.8398C10.9648 14.7109 11.0352 14.5391 11.0312 14.3633L10.9648 11.9531ZM12.8281 11.5195C12.7344 11.4414 12.6172 11.3867 12.4883 11.375C12.3633 11.3594 12.2344 11.3789 12.125 11.4375C12.0117 11.4922 11.9219 11.5781 11.8672 11.6875C11.8125 11.793 11.7969 11.9102 11.8164 12.0273C11.9961 13.0195 12.5352 13.3945 13.4297 13.1562Q13.9258 13.0273 13.9766 12.8008Q14.0273 12.5742 13.6562 12.2539L12.8281 11.5195ZM6.52734 11.4336C5.6875 11.6367 5.19922 12.1211 5.05859 12.8945C5.02734 13.0938 5.07812 13.2812 5.20312 13.4258C5.33203 13.5703 5.51953 13.6602 5.73828 13.6758C5.95703 13.6914 6.19141 13.6328 6.39453 13.5156C6.59375 13.3945 6.75391 13.2227 6.83984 13.0273C7.02344 12.5938 7.07031 12.1523 6.97656 11.6992C6.92578 11.4648 6.77344 11.3789 6.52734 11.4336ZM6.42969 14.1641L5.15625 14.3359C5.08594 14.3438 5.01953 14.3789 4.97266 14.4336C4.92969 14.4883 4.91016 14.5586 4.91797 14.625L5.04688 15.5117C5.14062 16.1367 5.30859 16.7266 5.51953 17.1484C5.73047 17.5742 5.96484 17.7969 6.16797 17.7695L6.44922 17.7305C6.65234 17.6992 6.80859 17.4258 6.88672 16.9648C6.96484 16.5039 6.96094 15.8984 6.86719 15.2734L6.73828 14.3906C6.72656 14.3203 6.69141 14.2617 6.63281 14.2188C6.57422 14.1758 6.5 14.1562 6.42969 14.1641ZM6.6875 24.8281C6.86719 24.9961 6.96875 25.2266 6.96875 25.4688C6.96875 25.707 6.86719 25.9375 6.6875 26.1055C6.50781 26.2773 6.26172 26.3711 6.00781 26.3711C5.75391 26.3711 5.50781 26.2773 5.32812 26.1055C5.14844 25.9375 5.04688 25.707 5.04688 25.4688C5.04688 25.2266 5.14844 24.9961 5.32812 24.8281C5.50781 24.6602 5.75391 24.5625 6.00781 24.5625C6.26172 24.5625 6.50781 24.6602 6.6875 24.8281ZM16.6055 24.8516C16.7734 25.0078 16.8672 25.2227 16.8672 25.4492C16.8672 25.6719 16.7734 25.8906 16.6055 26.0469C16.4336 26.207 16.207 26.2969 15.9688 26.2969C15.7305 26.2969 15.5 26.207 15.332 26.0469C15.1641 25.8906 15.0664 25.6719 15.0664 25.4492C15.0664 25.2227 15.1641 25.0078 15.332 24.8516C15.5 24.6914 15.7305 24.6016 15.9688 24.6016C16.207 24.6016 16.4336 24.6914 16.6055 24.8516ZM12.6523 24.8594C12.8242 25.0195 12.918 25.2344 12.918 25.457C12.918 25.6836 12.8242 25.8984 12.6523 26.0586C12.4844 26.2148 12.2578 26.3047 12.0195 26.3047C11.7773 26.3047 11.5508 26.2148 11.3828 26.0586C11.2109 25.8984 11.1172 25.6836 11.1172 25.457C11.1172 25.2344 11.2109 25.0195 11.3828 24.8594C11.5508 24.6992 11.7773 24.6094 12.0195 24.6094C12.2578 24.6094 12.4844 24.6992 12.6523 24.8594ZM22.8203 25.1211C22.8633 25.2227 22.8867 25.332 22.8867 25.4375C22.8867 25.6602 22.7969 25.8711 22.6289 26.0234C22.4648 26.1797 22.2422 26.2656 22.0078 26.2656C21.7734 26.2656 21.5508 26.1797 21.3867 26.0234C21.2188 25.8711 21.1289 25.6602 21.1289 25.4375C21.1289 25.332 21.1523 25.2227 21.1953 25.1211C21.2383 25.0234 21.3047 24.9297 21.3867 24.8555C21.4688 24.7773 21.5625 24.7148 21.6719 24.6758C21.7773 24.6328 21.8906 24.6094 22.0078 24.6094C22.125 24.6094 22.2383 24.6328 22.3438 24.6758C22.4531 24.7148 22.5469 24.7773 22.6289 24.8555C22.7109 24.9297 22.7773 25.0234 22.8203 25.1211ZM26.6055 24.8594C26.7734 25.0195 26.8672 25.2344 26.8672 25.457C26.8672 25.6836 26.7734 25.8984 26.6055 26.0586C26.4336 26.2148 26.207 26.3047 25.9688 26.3047C25.7305 26.3047 25.5 26.2148 25.332 26.0586C25.1641 25.8984 25.0664 25.6836 25.0664 25.457C25.0664 25.2344 25.1641 25.0195 25.332 24.8594C25.5 24.6992 25.7305 24.6094 25.9688 24.6094C26.207 24.6094 26.4336 24.6992 26.6055 24.8594ZM32.832 25.1211C32.875 25.2227 32.8984 25.332 32.8984 25.4375C32.8984 25.6602 32.8047 25.8711 32.6406 26.0234C32.4766 26.1797 32.25 26.2656 32.0195 26.2656C31.7852 26.2656 31.5625 26.1797 31.3945 26.0234C31.2305 25.8711 31.1367 25.6602 31.1367 25.4375C31.1367 25.332 31.1602 25.2227 31.2031 25.1211C31.25 25.0234 31.3125 24.9297 31.3945 24.8555C31.4766 24.7773 31.5742 24.7148 31.6797 24.6758C31.7891 24.6328 31.9023 24.6094 32.0195 24.6094C32.1328 24.6094 32.2461 24.6328 32.3555 24.6758C32.4609 24.7148 32.5586 24.7773 32.6406 24.8555C32.7227 24.9297 32.7852 25.0234 32.832 25.1211ZM19.5938 24.8594C19.7578 25.0156 19.8477 25.2227 19.8477 25.4375C19.8477 25.6562 19.7578 25.8633 19.5938 26.0195C19.4297 26.1719 19.207 26.2578 18.9766 26.2578C18.7461 26.2578 18.5273 26.1719 18.3633 26.0195C18.1992 25.8633 18.1094 25.6562 18.1094 25.4375C18.1094 25.2227 18.1992 25.0156 18.3633 24.8594C18.5273 24.707 18.7461 24.6211 18.9766 24.6211C19.207 24.6211 19.4297 24.707 19.5938 24.8594ZM9.57812 24.8711C9.74609 25.0273 9.83594 25.2383 9.83594 25.457C9.83594 25.5664 9.81641 25.6758 9.76953 25.7734C9.72656 25.875 9.66016 25.9688 9.57812 26.043C9.5 26.1211 9.40234 26.1797 9.29297 26.2227C9.1875 26.2656 9.07422 26.2852 8.95703 26.2852C8.72266 26.2852 8.5 26.1992 8.33594 26.043C8.17188 25.8867 8.07812 25.6758 8.07812 25.457C8.07812 25.2383 8.17188 25.0273 8.33594 24.8711C8.5 24.7188 8.72266 24.6289 8.95703 24.6289C9.19141 24.6289 9.41406 24.7188 9.57812 24.8711ZM29.582 24.8906C29.7383 25.0391 29.8281 25.2383 29.8281 25.4492C29.8281 25.5508 29.8047 25.6562 29.7656 25.75C29.7227 25.8477 29.6602 25.9336 29.582 26.0078C29.5039 26.082 29.4102 26.1406 29.3086 26.1797C29.207 26.2188 29.0977 26.2383 28.9883 26.2383C28.8789 26.2383 28.7695 26.2188 28.668 26.1797C28.5625 26.1406 28.4727 26.082 28.3945 26.0078C28.3164 25.9336 28.2539 25.8477 28.2109 25.75C28.168 25.6562 28.1484 25.5508 28.1484 25.4492C28.1484 25.2383 28.2344 25.0391 28.3945 24.8906C28.5508 24.7422 28.7656 24.6562 28.9883 24.6562C29.2109 24.6562 29.4258 24.7422 29.582 24.8906ZM42.9102 25.1602C42.9609 25.25 42.9883 25.3477 42.9883 25.4453C42.9883 25.543 42.9648 25.6367 42.9141 25.7305C42.8672 25.8203 42.793 25.9023 42.7031 25.9727C42.6133 26.0391 42.5039 26.0977 42.3867 26.1328C42.2695 26.1719 42.1406 26.1914 42.0117 26.1914C41.8828 26.1914 41.7539 26.1758 41.6367 26.1367C41.5156 26.1016 41.4102 26.0469 41.3164 25.9766C41.2266 25.9102 41.1523 25.8281 41.1055 25.7383C41.0547 25.6484 41.0273 25.5508 41.0273 25.4531C41.0273 25.3555 41.0508 25.2578 41.1016 25.168C41.1484 25.0781 41.2227 24.9961 41.3125 24.9258C41.4023 24.8555 41.5117 24.8008 41.6289 24.7617C41.7461 24.7266 41.875 24.707 42.0039 24.707C42.1328 24.7031 42.2617 24.7227 42.3789 24.7617C42.5 24.7969 42.6055 24.8516 42.6992 24.918C42.7891 24.9883 42.8633 25.0703 42.9102 25.1602ZM36.793 25.1797C36.8359 25.2695 36.8594 25.3633 36.8594 25.457C36.8555 25.5547 36.832 25.6484 36.7852 25.7344C36.7383 25.8203 36.6719 25.9023 36.5859 25.9688C36.5 26.0352 36.3984 26.0859 36.2891 26.1211C36.1797 26.1562 36.0586 26.1758 35.9414 26.1719C35.8203 26.1719 35.7031 26.1523 35.5938 26.1133C35.4805 26.0781 35.3828 26.0234 35.2969 25.9531C35.2148 25.8867 35.1484 25.8047 35.1055 25.7188C35.0586 25.6289 35.0352 25.5352 35.0391 25.4414C35.0391 25.3438 35.0625 25.25 35.1094 25.1641C35.1562 25.0742 35.2266 24.9961 35.3086 24.9297C35.3945 24.8633 35.4961 24.8125 35.6055 24.7773C35.7188 24.7422 35.8359 24.7227 35.957 24.7227C36.0742 24.7266 36.1953 24.7461 36.3047 24.7812C36.4141 24.8203 36.5117 24.875 36.5977 24.9414C36.6797 25.0117 36.7461 25.0898 36.793 25.1797ZM39.8086 25.2617C39.8477 25.3477 39.8633 25.4375 39.8555 25.5234C39.8438 25.7031 39.7383 25.8711 39.5625 25.9844C39.3906 26.1016 39.1602 26.1602 38.9258 26.1445C38.8125 26.1367 38.6992 26.1094 38.5938 26.0703C38.4922 26.0273 38.3984 25.9727 38.3203 25.9062C38.2461 25.8359 38.1875 25.7578 38.1484 25.6719C38.1094 25.5859 38.0938 25.5 38.1016 25.4102C38.1133 25.2305 38.2188 25.0664 38.3906 24.9492C38.5664 24.832 38.7969 24.7773 39.0273 24.793C39.1445 24.8008 39.2578 24.8242 39.3594 24.8633C39.4648 24.9062 39.5586 24.9609 39.6328 25.0312C39.7109 25.0977 39.7695 25.1758 39.8086 25.2617Z" clip-rule="evenodd" fill="#109816" fill-opacity="1.000000" fill-rule="evenodd"/>
</svg>
