<svg width="47.500000" height="49.875000" viewBox="0 0 47.5 49.875" fill="none" xmlns="http://www.w3.org/2000/svg" xmlns:xlink="http://www.w3.org/1999/xlink">
    <desc>
        Created with Pixso.
    </desc>
    <defs/>
    <path id="Vector" d="M25.207 0.5C24.3516 -0.167969 23.1484 -0.167969 22.293 0.5L0.917969 17.125C0.339844 17.5742 0 18.2656 0 19L0 45.125C0 47.75 2.125 49.875 4.75 49.875L42.75 49.875C45.375 49.875 47.5 47.75 47.5 45.125L47.5 19C47.5 18.2656 47.1602 17.5742 46.582 17.125L25.207 0.5ZM33.25 45.125L42.75 45.125L42.75 20.1602L23.75 5.38281L4.75 20.1602L4.75 45.125L14.25 45.125L14.25 26.125C14.25 24.8125 15.3125 23.75 16.625 23.75L30.875 23.75C32.1875 23.75 33.25 24.8125 33.25 26.125L33.25 45.125ZM19 45.125L19 28.5L28.5 28.5L28.5 45.125L19 45.125Z" fill="#FFF" fill-opacity="1.000000" fill-rule="evenodd"/>
</svg>