<svg width="64.003906" height="32.000000" viewBox="0 0 64.0039 32" fill="none" xmlns="http://www.w3.org/2000/svg" xmlns:xlink="http://www.w3.org/1999/xlink">
	<desc>
			Created with Pixso.
	</desc>
	<defs/>
	<path id="path60" d="M56.6953 9.13281L56.6953 16.957L53.8203 16.957L53.8203 11.4688L51.0547 11.4688L51.0547 16.957L48.1797 16.957L48.1797 9.13281L56.6953 9.13281L56.6953 9.13281Z" fill="#242424" fill-opacity="1.000000" fill-rule="nonzero"/>
	<path id="path62" d="M42.2734 17.2344C44.8477 17.2344 46.7578 15.7031 46.7578 13.3789C46.7578 11.1289 45.3477 9.66797 42.9922 9.66797C41.9062 9.66797 41.0078 10.0391 40.332 10.6797C40.4961 9.35547 41.6484 8.38672 42.918 8.38672C43.2109 8.38672 45.4219 8.38281 45.4219 8.38281L46.668 6.05859C46.668 6.05859 43.8984 6.12109 42.6094 6.12109C39.6641 6.16797 37.6758 8.76953 37.6758 11.9297C37.6758 15.6133 39.6172 17.2344 42.2734 17.2344ZM42.2891 11.7227C43.2461 11.7227 43.9102 12.3359 43.9102 13.3789C43.9102 14.3164 43.3203 15.0898 42.2891 15.0938C41.3047 15.0938 40.6445 14.375 40.6445 13.3945C40.6445 12.3516 41.3047 11.7227 42.2891 11.7227Z" fill="#242424" fill-opacity="1.000000" fill-rule="evenodd"/>
	<path id="path64" d="M35.3398 14.3398C35.3398 14.3398 34.6602 14.7188 33.6445 14.793C32.4805 14.8242 31.4414 14.1094 31.4414 12.8398C31.4414 11.5977 32.3594 10.8867 33.6172 10.8867C34.3867 10.8867 35.4102 11.4062 35.4102 11.4062C35.4102 11.4062 36.1562 10.0742 36.543 9.41016C35.8359 8.88672 34.8906 8.60156 33.793 8.60156C31.0234 8.60156 28.8789 10.3555 28.8789 12.8242C28.8789 15.3203 30.8945 17.0352 33.793 16.9844C34.6016 16.9531 35.7227 16.6758 36.4023 16.2539L35.3398 14.3398Z" fill="#242424" fill-opacity="1.000000" fill-rule="nonzero"/>
	<path id="path66" d="M0 6.96484L3.98828 13.8906L3.98828 18.1172L0.00390625 25.0312L0 6.96484Z" fill="#5B57A2" fill-opacity="1.000000" fill-rule="nonzero"/>
	<path id="path68" d="M15.3086 11.3711L19.043 9.14453L26.6875 9.13672L15.3086 15.9141L15.3086 11.3711Z" fill="#D90751" fill-opacity="1.000000" fill-rule="nonzero"/>
	<path id="path70" d="M15.2852 6.92578L15.3047 16.0938L11.3086 13.707L11.3086 0L15.2852 6.92578Z" fill="#FAB718" fill-opacity="1.000000" fill-rule="nonzero"/>
	<path id="path72" d="M26.6836 9.14062L19.0391 9.14453L15.2852 6.92578L11.3086 0L26.6836 9.14062Z" fill="#ED6F26" fill-opacity="1.000000" fill-rule="nonzero"/>
	<path id="path74" d="M15.3047 25.0664L15.3047 20.6172L11.3086 18.2773L11.3125 32L15.3047 25.0664Z" fill="#63B22F" fill-opacity="1.000000" fill-rule="nonzero"/>
	<path id="path76" d="M19.0312 22.8633L3.98438 13.8906L0 6.96484L26.6719 22.8555L19.0312 22.8633Z" fill="#1487C9" fill-opacity="1.000000" fill-rule="nonzero"/>
	<path id="path78" d="M11.3125 31.9961L15.3047 25.0664L19.0312 22.8594L26.6719 22.8516L11.3125 31.9961Z" fill="#017F36" fill-opacity="1.000000" fill-rule="nonzero"/>
	<path id="path80" d="M0.00390625 25.0312L11.3438 18.2773L7.53125 16.0039L3.98438 18.1172L0.00390625 25.0312Z" fill="#984995" fill-opacity="1.000000" fill-rule="nonzero"/>
	<path id="path82" d="M31.4414 22.2266C31.3555 22.332 31.2383 22.418 31.1016 22.4727C30.957 22.5273 30.8047 22.5547 30.6523 22.5547C30.5 22.5586 30.3477 22.5312 30.2031 22.4844C30.0742 22.4375 29.957 22.3672 29.8594 22.2734C29.7578 22.1836 29.6836 22.0703 29.6328 21.9492C29.5781 21.8125 29.5508 21.668 29.5508 21.5234C29.5508 21.3789 29.5781 21.2461 29.6289 21.1211C29.6797 20.9922 29.7539 20.8867 29.8477 20.793C29.9375 20.6992 30.0508 20.6289 30.1758 20.5742C30.3008 20.5195 30.4414 20.4922 30.5938 20.4922C30.7578 20.4922 30.9102 20.5117 31.0469 20.5508C31.1836 20.5938 31.3047 20.6602 31.3984 20.7539L31.2305 21.0312C31.1484 20.957 31.0547 20.9023 30.9492 20.8711C30.8516 20.8398 30.7461 20.8242 30.6445 20.8242C30.5508 20.8242 30.4609 20.8398 30.3789 20.875C30.293 20.9062 30.2148 20.9531 30.1523 21.0156C30.0859 21.0781 30.0312 21.1562 29.9961 21.2383C29.957 21.3242 29.9375 21.418 29.9375 21.5273C29.9375 21.6367 29.9609 21.7344 30 21.8164C30.0391 21.9023 30.0898 21.9766 30.1562 22.0391C30.2266 22.1016 30.3047 22.1484 30.3945 22.1797C30.4844 22.2109 30.5781 22.2266 30.6797 22.2266C30.8047 22.2266 30.918 22.2031 31.0156 22.1562C31.1094 22.1094 31.1953 22.0469 31.2695 21.9727L31.4414 22.2266ZM31.918 22.5078L31.918 20.5352L32.2812 20.5352L32.2812 22.0039L33.4688 20.5352L33.832 20.5352L33.832 22.5078L33.4688 22.5078L33.4688 21.0391L32.2812 22.5078L31.918 22.5078ZM36.25 22.2266C36.1602 22.3359 36.043 22.418 35.9102 22.4727C35.7656 22.5273 35.6133 22.5547 35.4609 22.5547C35.3086 22.5586 35.1562 22.5312 35.0117 22.4844C34.8828 22.4375 34.7656 22.3672 34.668 22.2734C34.5664 22.1836 34.4922 22.0703 34.4414 21.9492C34.3867 21.8125 34.3594 21.668 34.3594 21.5234C34.3594 21.3789 34.3867 21.2461 34.4375 21.1211C34.4883 20.9922 34.5625 20.8867 34.6562 20.793C34.7461 20.6992 34.8594 20.6289 34.9844 20.5742C35.1133 20.5195 35.2578 20.4883 35.4023 20.4922C35.5664 20.4922 35.7148 20.5117 35.8555 20.5508C35.9922 20.5938 36.1133 20.6602 36.207 20.7539L36.0391 21.0312C35.957 20.957 35.8633 20.9023 35.7578 20.8711C35.6602 20.8398 35.5547 20.8242 35.4531 20.8242C35.2695 20.8242 35.0938 20.8945 34.9609 21.0156C34.8945 21.0781 34.8398 21.1562 34.8047 21.2383C34.7656 21.3242 34.7461 21.418 34.7461 21.5273C34.7461 21.6367 34.7695 21.7344 34.8086 21.8164C34.8477 21.9023 34.8984 21.9766 34.9648 22.0391C35.0352 22.1016 35.1133 22.1484 35.2031 22.1797C35.293 22.2109 35.3867 22.2266 35.4883 22.2266C35.6133 22.2266 35.7227 22.2031 35.8242 22.1562C35.918 22.1094 36.0039 22.0469 36.0781 21.9727L36.25 22.2266ZM36.4375 20.5352L38.3086 20.5352L38.3086 20.8867L37.5586 20.8867L37.5586 22.5078L37.1914 22.5078L37.1914 20.8867L36.4375 20.8867L36.4375 20.5352L36.4375 20.5352Z" fill="#242424" fill-opacity="1.000000" fill-rule="nonzero"/>
	<path id="path84" d="M40.0195 22.4883C40.1562 22.4453 40.2734 22.3789 40.375 22.293L40.2656 22.0156C40.1992 22.0742 40.1094 22.125 40 22.1641C39.8906 22.2031 39.7695 22.2227 39.6367 22.2227C39.4336 22.2227 39.2695 22.1719 39.1367 22.0664C39.0039 21.9648 38.9336 21.8164 38.918 21.6328L40.4961 21.6328C40.5117 21.5625 40.5195 21.4844 40.5195 21.3945C40.5195 21.2578 40.4922 21.1367 40.4414 21.0234C40.3945 20.918 40.3281 20.8203 40.2383 20.7383C40.1523 20.6602 40.0469 20.5977 39.9336 20.5547C39.8164 20.5117 39.6914 20.4883 39.5625 20.4883C39.3906 20.4883 39.2422 20.5156 39.1094 20.5703C38.9883 20.6211 38.875 20.6953 38.7812 20.7891C38.6914 20.8828 38.6211 20.9961 38.5742 21.1172C38.5273 21.2461 38.5039 21.3828 38.5039 21.5195C38.5039 21.6758 38.5312 21.8164 38.582 21.9453C38.6328 22.0664 38.707 22.1797 38.8047 22.2695C38.8984 22.3594 39.0156 22.4297 39.1484 22.4805C39.2969 22.5273 39.4492 22.5547 39.6055 22.5508C39.7461 22.5508 39.8828 22.5273 40.0195 22.4883ZM39.0938 20.9688C39.207 20.8672 39.3594 20.8203 39.5469 20.8203C39.7266 20.8203 39.8672 20.8672 39.9727 20.957C40.0742 21.0508 40.1328 21.1797 40.1406 21.3438L38.8945 21.3438C38.9102 21.1992 38.9844 21.0664 39.0938 20.9688Z" fill="#242424" fill-opacity="1.000000" fill-rule="evenodd"/>
	<path id="path86" d="M41.0117 20.5352L41.3438 20.5352L42.1328 21.5156L42.8828 20.5352L43.2031 20.5352L43.2031 22.5117L42.8398 22.5117L42.8398 21.0703L42.1289 21.9883L42.1133 21.9883L41.375 21.0703L41.375 22.5117L41.0117 22.5117L41.0117 20.5352Z" fill="#242424" fill-opacity="1.000000" fill-rule="nonzero"/>
	<path id="path88" d="M44.1953 20.5391C44.0859 20.5664 43.9805 20.6133 43.8828 20.6719L43.9805 20.9492C44.0625 20.9102 44.1445 20.8789 44.2266 20.8477C44.3125 20.8203 44.418 20.8047 44.543 20.8047C44.6445 20.8047 44.7266 20.8203 44.7891 20.8516C44.8516 20.8828 44.8984 20.9258 44.9297 20.9805C44.9609 21.0312 44.9844 21.0977 44.9961 21.1758C45.0078 21.2539 45.0117 21.3398 45.0117 21.4297C44.9375 21.3789 44.8516 21.3438 44.7617 21.3281C44.6758 21.3125 44.5859 21.3047 44.5 21.3047C44.3906 21.3047 44.2891 21.3203 44.1914 21.3438C44.0938 21.3711 44.0117 21.4102 43.9453 21.4648C43.875 21.5195 43.8203 21.5859 43.7812 21.6641C43.7422 21.7461 43.7227 21.8398 43.7227 21.9297C43.7227 22.125 43.7812 22.2734 43.8945 22.3828C44.0117 22.4883 44.1641 22.543 44.3516 22.543C44.5234 22.543 44.6602 22.5117 44.7656 22.4531C44.8672 22.3984 44.9492 22.332 45.0117 22.2539L45.0117 22.5117L45.3516 22.5117L45.3516 21.3008C45.3516 21.043 45.293 20.8438 45.1758 20.7031C45.0625 20.5625 44.8555 20.4922 44.5664 20.4922C44.4375 20.4922 44.3125 20.5078 44.1953 20.5391ZM44.8047 22.1406C44.7227 22.1992 44.6133 22.2227 44.4805 22.2227C44.3633 22.2227 44.2695 22.1953 44.207 22.1406C44.1406 22.082 44.1094 22.0078 44.1094 21.9141C44.1094 21.8594 44.1211 21.8125 44.1445 21.7695C44.1719 21.7266 44.207 21.6953 44.2461 21.668C44.2891 21.6406 44.3359 21.6172 44.3867 21.6055C44.4375 21.5938 44.4922 21.5859 44.5469 21.5859C44.7266 21.5859 44.8828 21.6289 45.0078 21.7188L45.0078 21.9688C44.9492 22.0352 44.8789 22.0898 44.8047 22.1406ZM48.5742 19.8398C48.6484 19.8047 48.7148 19.75 48.7812 19.668L48.582 19.3906C48.5312 19.457 48.4727 19.5039 48.4102 19.5273C48.3398 19.5547 48.2695 19.5742 48.1953 19.5859L48.1289 19.5977C48.0664 19.6094 48.0039 19.6211 47.9336 19.6289C47.8242 19.6484 47.7148 19.6836 47.6094 19.7266C47.4453 19.7969 47.3164 19.8906 47.2148 20.0078C47.1172 20.125 47.0391 20.2578 46.9844 20.4062C46.9297 20.5547 46.8945 20.707 46.875 20.8633C46.8594 21.0234 46.8477 21.1758 46.8477 21.3242C46.8477 21.5117 46.875 21.6836 46.9258 21.8359C46.9766 21.9883 47.0469 22.1172 47.1406 22.2227C47.2383 22.3281 47.3516 22.4102 47.4844 22.4648C47.6172 22.5234 47.7656 22.5508 47.9375 22.5508C48.0898 22.5508 48.2344 22.5234 48.3633 22.4688C48.4883 22.418 48.6016 22.3438 48.6953 22.25C48.7891 22.1602 48.8633 22.0508 48.9141 21.9297C48.9648 21.8086 48.9922 21.6758 48.9922 21.5391C48.9922 21.3906 48.9688 21.2539 48.9258 21.1328C48.8828 21.0195 48.8203 20.9141 48.7344 20.8281C48.6484 20.7383 48.5469 20.6719 48.4336 20.625C48.3047 20.5781 48.1719 20.5547 48.0352 20.5547C47.9492 20.5547 47.8633 20.5664 47.7773 20.5898C47.6992 20.6094 47.6211 20.6445 47.5469 20.6836C47.4766 20.7227 47.4141 20.7734 47.3555 20.8281C47.3008 20.8828 47.2539 20.9453 47.2227 21.0156L47.2148 21.0156C47.2188 20.9258 47.2305 20.832 47.2539 20.7383C47.2734 20.6406 47.3047 20.5508 47.3438 20.4648C47.3828 20.3789 47.4336 20.3008 47.4961 20.2305C47.5625 20.1562 47.6445 20.1016 47.7344 20.0625C47.8359 20.0156 47.9414 19.9844 48.0508 19.9648L48.125 19.9492C48.1953 19.9375 48.2656 19.9258 48.332 19.9102C48.418 19.8945 48.5 19.8711 48.5742 19.8398ZM47.2891 21.7344C47.2539 21.625 47.2383 21.5078 47.2383 21.3906C47.2539 21.3242 47.2812 21.2578 47.3203 21.2031C47.3594 21.1406 47.4102 21.0898 47.4727 21.043C47.6094 20.9375 47.7734 20.8828 47.9492 20.8828C48.1641 20.8828 48.3242 20.9492 48.4375 21.0742C48.5508 21.2031 48.6055 21.3633 48.6055 21.5547C48.6055 21.6523 48.5859 21.7383 48.5547 21.8164C48.5234 21.8984 48.4766 21.9688 48.418 22.0273C48.3555 22.0898 48.2852 22.1367 48.2031 22.1719C48.1211 22.207 48.0312 22.2227 47.9297 22.2227C47.8281 22.2227 47.7344 22.2031 47.6484 22.1641C47.5664 22.125 47.4883 22.0664 47.4297 21.9961C47.3672 21.918 47.3203 21.832 47.2891 21.7344ZM51.7891 20.5352L51.4258 20.5352L51.4258 22.5078L51.7891 22.5078L51.7891 20.5352ZM49.5156 20.5352L49.8828 20.5352L49.8828 21.125L50.2188 21.125C50.3789 21.125 50.5078 21.1445 50.6133 21.1836C50.7148 21.2227 50.7969 21.2734 50.8594 21.3359C50.9219 21.3984 50.9688 21.4688 50.9922 21.5508C51.0195 21.6328 51.0312 21.7188 51.0312 21.8086C51.0312 21.8945 51.0195 21.9805 50.9883 22.0664C50.9609 22.1484 50.9102 22.2227 50.8477 22.2891C50.7812 22.3555 50.6953 22.4102 50.582 22.4492C50.4727 22.4883 50.3398 22.5117 50.1758 22.5117L49.5156 22.5117L49.5156 20.5352L49.5156 20.5352ZM49.8828 21.457L49.8828 22.1797L50.1484 22.1797C50.3281 22.1797 50.4609 22.1484 50.5312 22.0859C50.6055 22.0234 50.6445 21.9375 50.6445 21.8164C50.6445 21.6992 50.6055 21.6094 50.5312 21.5469C50.4531 21.4844 50.3281 21.4531 50.1523 21.4531L49.8828 21.4531L49.8828 21.457Z" fill="#242424" fill-opacity="1.000000" fill-rule="evenodd"/>
	<path id="path90" d="M54.1992 22.2266C54.1133 22.332 53.9961 22.418 53.8594 22.4727C53.7148 22.5273 53.5625 22.5547 53.4102 22.5547C53.2578 22.5586 53.1055 22.5312 52.9609 22.4844C52.832 22.4375 52.7148 22.3672 52.6172 22.2734C52.5156 22.1836 52.4414 22.0703 52.3906 21.9492C52.3359 21.8125 52.3086 21.668 52.3086 21.5234C52.3086 21.3789 52.332 21.2461 52.3867 21.1211C52.4375 20.9922 52.5117 20.8867 52.6055 20.793C52.6953 20.6992 52.8086 20.6289 52.9336 20.5742C53.0625 20.5195 53.207 20.4883 53.3516 20.4922C53.5117 20.4922 53.668 20.5117 53.8047 20.5508C53.9414 20.5938 54.0625 20.6602 54.1562 20.7539L53.9883 21.0312C53.9062 20.957 53.8125 20.9023 53.707 20.8711C53.6094 20.8398 53.5039 20.8242 53.4023 20.8242C53.3086 20.8242 53.2188 20.8398 53.1367 20.875C53.0508 20.9062 52.9727 20.957 52.9102 21.0156C52.8438 21.0781 52.7891 21.1562 52.7539 21.2383C52.7148 21.3242 52.6953 21.418 52.6953 21.5273C52.6953 21.6367 52.7188 21.7344 52.7578 21.8164C52.7969 21.9023 52.8477 21.9766 52.9141 22.0391C52.9844 22.1016 53.0625 22.1484 53.1523 22.1797C53.2422 22.2109 53.3359 22.2266 53.4375 22.2266C53.5625 22.2266 53.6719 22.2031 53.7734 22.1562C53.8672 22.1094 53.9531 22.0469 54.0273 21.9727L54.1992 22.2266ZM54.3867 20.5352L56.2578 20.5352L56.2578 20.8867L55.5039 20.8867L55.5039 22.5078L55.1406 22.5078L55.1406 20.8867L54.3867 20.8867L54.3867 20.5352L54.3867 20.5352Z" fill="#242424" fill-opacity="1.000000" fill-rule="nonzero"/>
	<path id="path92" d="M57.0234 20.5312L56.6602 20.5312L56.6602 23.3867L57.0234 23.3867L57.0234 22.418C57.0977 22.4648 57.1875 22.4961 57.2891 22.5195C57.3906 22.5391 57.4961 22.5508 57.6055 22.5508C57.7656 22.5508 57.9102 22.5234 58.043 22.4688C58.168 22.418 58.2852 22.3398 58.3789 22.2461C58.4727 22.1484 58.5469 22.0391 58.5977 21.9102C58.6484 21.7773 58.6719 21.6367 58.6719 21.4883C58.6719 21.3438 58.6484 21.207 58.6055 21.0859C58.5664 20.9688 58.5 20.8633 58.418 20.7695C58.3359 20.6797 58.2344 20.6094 58.1172 20.5625C57.9961 20.5117 57.8594 20.4844 57.7227 20.4883C57.582 20.4883 57.4492 20.5156 57.3203 20.5703C57.1953 20.6211 57.0938 20.6875 57.0234 20.7656L57.0234 20.5312ZM57.2773 20.8984C57.3828 20.8477 57.4961 20.8203 57.6172 20.8203C57.7227 20.8203 57.8203 20.8359 57.9062 20.8672C57.9883 20.9023 58.0586 20.9492 58.1133 21.0117C58.1719 21.0703 58.2148 21.1445 58.2461 21.2266C58.2734 21.3125 58.2891 21.4023 58.2891 21.5039C58.2891 21.6094 58.2695 21.7031 58.2383 21.793C58.207 21.8789 58.1602 21.9531 58.0977 22.0195C58.0352 22.082 57.957 22.1328 57.8711 22.168C57.7773 22.207 57.6758 22.2266 57.5742 22.2227C57.4766 22.2227 57.3828 22.2109 57.2969 22.1914C57.1992 22.1641 57.1094 22.125 57.0234 22.0703L57.0234 21.0938C57.0898 21.0156 57.1758 20.9531 57.2773 20.8984ZM61.4727 20.5312L61.1055 20.5312L61.1055 22.5078L61.4727 22.5078L61.4727 20.5312ZM59.1953 20.5312L59.5625 20.5312L59.5625 21.125L59.8984 21.125C60.0586 21.125 60.1875 21.1445 60.293 21.1836C60.3945 21.2188 60.4805 21.2734 60.5391 21.332C60.6016 21.3945 60.6484 21.4688 60.6719 21.5508C60.6992 21.6328 60.7109 21.7188 60.7109 21.8047C60.7109 21.8945 60.6992 21.9805 60.668 22.0625C60.6406 22.1484 60.5898 22.2227 60.5273 22.2891C60.4609 22.3555 60.375 22.4062 60.2656 22.4492C60.1523 22.4883 60.0195 22.5078 59.8594 22.5078L59.1953 22.5078L59.1953 20.5312L59.1953 20.5312ZM59.5664 21.457L59.5664 22.1797L59.8281 22.1797C60.0117 22.1797 60.1406 22.1484 60.2148 22.0859C60.2891 22.0234 60.3281 21.9336 60.3281 21.8164C60.3281 21.6992 60.2852 21.6055 60.2148 21.543C60.1367 21.4805 60.0117 21.4492 59.8359 21.4492L59.5664 21.4492L59.5664 21.457Z" fill="#242424" fill-opacity="1.000000" fill-rule="evenodd"/>
	<path id="path94" d="M63.2227 21.4883L64.0039 22.5117L63.5547 22.5117L62.9531 21.7109L62.3398 22.5117L61.9141 22.5117L62.6914 21.5039L61.9609 20.5352L62.4102 20.5352L62.9648 21.2812L63.5312 20.5352L63.957 20.5352L63.2227 21.4883ZM31.1758 24.9492L30.0547 24.9492L30.0547 26.5977L29.6914 26.5977L29.6914 24.6211L31.5391 24.6211L31.5391 26.5977L31.1758 26.5977L31.1758 24.9492ZM33.6094 24.9727L32.8906 24.9727L32.8672 25.3047C32.8438 25.5859 32.8086 25.8125 32.7578 25.9883C32.7109 26.1602 32.6523 26.293 32.582 26.3867C32.5117 26.4805 32.4297 26.543 32.3398 26.5742C32.2422 26.6094 32.1445 26.625 32.043 26.625L32.0117 26.2812C32.0547 26.2852 32.0977 26.2773 32.1484 26.2539C32.1992 26.2305 32.25 26.1836 32.3008 26.1094C32.3477 26.0352 32.3906 25.9258 32.4297 25.7891C32.4688 25.6484 32.4961 25.4688 32.5117 25.2383L32.5469 24.625L33.9766 24.625L33.9766 26.5977L33.6094 26.5977L33.6094 24.9727Z" fill="#242424" fill-opacity="1.000000" fill-rule="nonzero"/>
	<path id="path96" d="M34.957 24.6211C34.8398 24.6523 34.7344 24.6992 34.6445 24.7539L34.7422 25.0352C34.8242 24.9922 34.9062 24.9609 34.9883 24.9297C35.0742 24.9023 35.1797 24.8906 35.3047 24.8906C35.4062 24.8906 35.4883 24.9062 35.5508 24.9375C35.6133 24.9648 35.6602 25.0078 35.6914 25.0625C35.7227 25.1172 35.7461 25.1836 35.7578 25.2578C35.7695 25.3359 35.7734 25.4219 35.7734 25.5117C35.6992 25.4609 35.6133 25.4297 35.5234 25.4141C35.4375 25.3945 35.3477 25.3867 35.2617 25.3867C35.1523 25.3867 35.0508 25.4023 34.9531 25.4297C34.8555 25.4531 34.7734 25.4961 34.707 25.5469C34.6367 25.6016 34.582 25.668 34.543 25.7461C34.5039 25.8281 34.4844 25.9219 34.4844 26.0156C34.4844 26.207 34.543 26.3594 34.6562 26.4648C34.7734 26.5703 34.9258 26.625 35.1133 26.625C35.2852 26.625 35.4219 26.5938 35.5273 26.5391C35.6289 26.4805 35.7109 26.4141 35.7734 26.3398L35.7734 26.5938L36.1133 26.5938L36.1133 25.3828C36.1133 25.125 36.0547 24.9258 35.9375 24.7852C35.8242 24.6445 35.6172 24.5742 35.3281 24.5742C35.2031 24.5742 35.0781 24.5898 34.957 24.6211ZM35.5703 26.2227C35.4883 26.2812 35.3789 26.3086 35.2422 26.3086C35.125 26.3086 35.0352 26.2773 34.9688 26.2227C34.9062 26.1641 34.8711 26.0898 34.8711 25.9961C34.8711 25.9414 34.8828 25.8945 34.9102 25.8516C34.9336 25.8086 34.9688 25.7773 35.0078 25.75C35.0469 25.7227 35.0977 25.7031 35.1484 25.6914C35.2031 25.6758 35.2578 25.6719 35.3125 25.6719C35.4922 25.6719 35.6445 25.7109 35.7734 25.8008L35.7734 26.0508C35.7109 26.1172 35.6445 26.1758 35.5703 26.2227Z" fill="#242424" fill-opacity="1.000000" fill-rule="evenodd"/>
	<path id="path98" d="M36.4688 24.6211L38.3398 24.6211L38.3398 24.9727L37.5898 24.9727L37.5898 26.5977L37.2227 26.5977L37.2227 24.9727L36.4727 24.9727L36.4727 24.6211L36.4688 24.6211Z" fill="#242424" fill-opacity="1.000000" fill-rule="nonzero"/>
	<path id="path100" d="M40.0508 26.5742C40.1875 26.5312 40.3047 26.4688 40.4062 26.3789L40.2969 26.1016C40.2305 26.1602 40.1406 26.2109 40.0312 26.25C39.9219 26.2891 39.8008 26.3086 39.668 26.3086C39.4648 26.3086 39.3008 26.2578 39.168 26.1562C39.0352 26.0508 38.9648 25.9023 38.9492 25.7188L40.5273 25.7188C40.543 25.6484 40.5508 25.5703 40.5508 25.4805C40.5508 25.3438 40.5234 25.2227 40.4727 25.1133C40.4258 25.0039 40.3594 24.9062 40.2695 24.8242C40.1836 24.7461 40.0781 24.6836 39.9648 24.6406C39.8477 24.5977 39.7227 24.5742 39.5938 24.5742C39.4258 24.5742 39.2734 24.6016 39.1406 24.6562C39.0195 24.707 38.9062 24.7812 38.8125 24.875C38.7227 24.9688 38.6523 25.082 38.6055 25.2031C38.5586 25.332 38.5352 25.4688 38.5352 25.6055C38.5352 25.7617 38.5625 25.9023 38.6133 26.0312C38.6641 26.1562 38.7422 26.2656 38.8359 26.3555C38.9297 26.4453 39.0469 26.5156 39.1836 26.5664C39.3281 26.6172 39.4805 26.6406 39.6367 26.6367C39.7734 26.6367 39.9102 26.6172 40.0508 26.5742ZM39.125 25.0508C39.2383 24.9531 39.3867 24.9023 39.5781 24.9023C39.7578 24.9023 39.8984 24.9531 40 25.043C40.1055 25.1367 40.1602 25.2656 40.1719 25.4297L38.9219 25.4297C38.9414 25.2852 39.0117 25.1484 39.125 25.0508ZM40.7266 24.6172L41.1914 24.6172L41.8945 25.5703L41.1406 26.5938L40.6953 26.5938L41.4844 25.5703L40.7266 24.6172ZM41.9844 24.6172L42.3477 24.6172L42.3477 26.5938L41.9844 26.5938L41.9844 24.6172ZM43.6523 26.5938L42.8516 25.5703L43.6016 24.6172L43.1484 24.6172L42.4375 25.5703L43.1992 26.5938L43.6523 26.5938ZM45.3203 26.5742C45.457 26.5312 45.5781 26.4688 45.6758 26.3789L45.5664 26.1016C45.5 26.1602 45.4102 26.2109 45.3008 26.25C45.1914 26.2891 45.0703 26.3086 44.9375 26.3086C44.7344 26.3086 44.5703 26.2578 44.4375 26.1562C44.3047 26.0508 44.2344 25.9023 44.2188 25.7188L45.7969 25.7188C45.8125 25.6484 45.8203 25.5703 45.8203 25.4805C45.8203 25.3438 45.7969 25.2227 45.7461 25.1133C45.6992 25.0039 45.6289 24.9062 45.543 24.8242C45.4531 24.7461 45.3516 24.6836 45.2383 24.6406C45.1172 24.5977 44.9922 24.5742 44.8633 24.5742C44.6953 24.5742 44.543 24.6016 44.4141 24.6562C44.2891 24.707 44.1758 24.7812 44.082 24.875C43.9922 24.9688 43.9219 25.082 43.8789 25.2031C43.8281 25.332 43.8047 25.4688 43.8047 25.6055C43.8047 25.7617 43.832 25.9023 43.8828 26.0312C43.9336 26.1562 44.0117 26.2656 44.1055 26.3555C44.1992 26.4453 44.3164 26.5156 44.4531 26.5664C44.5977 26.6172 44.75 26.6406 44.9062 26.6367C45.0469 26.6367 45.1875 26.6172 45.3203 26.5742ZM44.3945 25.0508C44.5078 24.9531 44.6562 24.9023 44.8477 24.9023C45.0234 24.9023 45.168 24.9531 45.2734 25.043C45.375 25.1367 45.4297 25.2656 45.4414 25.4297L44.1953 25.4297C44.2109 25.2852 44.2812 25.1484 44.3945 25.0508ZM47.3008 23.957C47.0859 23.957 46.9688 23.8398 46.9492 23.6094L46.6055 23.6094C46.6055 23.6992 46.6211 23.7773 46.6523 23.8516C46.6836 23.9297 46.7266 23.9922 46.7852 24.0469C46.8398 24.1016 46.9141 24.1406 47 24.1758C47.0859 24.207 47.1836 24.2227 47.2969 24.2227C47.4023 24.2227 47.4961 24.207 47.5781 24.1758C47.6602 24.1445 47.7305 24.1016 47.7891 24.0469C47.8477 23.9922 47.8945 23.9297 47.9258 23.8516C47.957 23.7773 47.9766 23.6992 47.9766 23.6094L47.6328 23.6094C47.6172 23.8398 47.5039 23.957 47.3008 23.957ZM46.3164 24.6172L46.3164 26.5938L46.6797 26.5938L47.8672 25.1211L47.8672 26.5938L48.2305 26.5938L48.2305 24.6172L47.8672 24.6172L46.6797 26.0898L46.6797 24.6172L46.3164 24.6172Z" fill="#242424" fill-opacity="1.000000" fill-rule="evenodd"/>
</svg>
