<svg width="64.000000" height="32.000000" viewBox="0 0 64 32" fill="none" xmlns="http://www.w3.org/2000/svg" xmlns:xlink="http://www.w3.org/1999/xlink">
	<desc>
			Created with Pixso.
	</desc>
	<defs>
		<clipPath id="clip2415_35377">
			<rect id="сдек иконка" rx="4.000000" width="64.000000" height="32.000000" fill="white" fill-opacity="0"/>
		</clipPath>
	</defs>
	<rect id="сдек иконка" rx="4.000000" width="64.000000" height="32.000000" fill="#00B33C" fill-opacity="1.000000"/>
	<g clip-path="url(#clip2415_35377)">
		<path id="Vector" d="M15.3672 19.6016L13.2773 19.6016C10.0156 19.6016 12.3828 12.3828 15.1289 12.3828L18.4336 12.3828C18.9609 12.3828 19.8945 12.4844 20.3555 11.1211L21.0664 9L16.5352 9C14.0859 9 12.1758 9.90234 10.7969 11.4102C8.41406 13.9961 7.60547 18.0312 8.17578 19.9648C8.71875 21.75 10.1953 22.9258 12.5078 22.957L14.3086 22.9727L16.5234 22.9727L17.0664 21.2734C17.4688 20.0664 16.5664 19.6016 15.3672 19.6016ZM40.8125 16.6094L41.4922 14.3008L34.207 14.3008C32.9922 14.3008 32.4492 14.6484 32.2422 15.375L31.5586 17.6836L38.8477 17.6836C40.0586 17.6836 40.6016 17.3359 40.8125 16.6094ZM30.4727 20.6758L29.7891 22.9844L37.0781 22.9844C38.2734 22.9844 38.832 22.6367 39.043 21.9102L39.7227 19.6016L32.4375 19.6016C31.2383 19.6016 30.6953 19.9492 30.4727 20.6758ZM42.5117 11.3242L43.1953 9.01562L35.9062 9.01562C34.6953 9.01562 34.1484 9.36328 33.9414 10.0898L33.2578 12.3984L40.5469 12.3984C41.7461 12.3984 42.2891 12.0508 42.5117 11.3242ZM31.5039 11.7891C31.1953 9.64062 30.0938 9.01562 27.418 9.01562L22.543 9.01562L19.6992 17.6836L21.4961 17.6836C22.5703 17.6836 23.1133 17.6992 23.6836 16.1016L24.8711 12.3828L26.6797 12.3828C28.2266 12.3828 27.8789 14.4023 27.0977 16.3633C26.4023 18.0898 25.1914 19.6172 23.7266 19.6172L20.7031 19.6172C19.4922 19.6172 18.9336 19.9648 18.7109 20.6914L17.957 23L20.1719 23L22.3477 22.9844C24.2695 22.9727 25.8438 22.8242 27.6836 21.0977C29.6367 19.2539 31.8945 14.5195 31.5039 11.7891ZM56 9L51.7773 9L47.8047 13.4023C47.3477 13.9102 46.8711 14.418 46.4141 15.0117L46.3711 15.0117L48.3477 9L44.9062 9L40.2656 22.9844L43.7109 22.9844L45.1875 18.5859L46.7188 17.2344L47.9336 21.2148C48.3086 22.4492 48.6992 22.9844 49.5352 22.9844L52.168 22.9844L49.4648 15.1719L56 9Z" fill="#FFFFFF" fill-opacity="1.000000" fill-rule="evenodd"/>
	</g>
</svg>
