<svg width="47" height="48" viewBox="0 0 47 48" fill="none" xmlns="http://www.w3.org/2000/svg">
<rect x="0.5" y="0.5" width="46" height="47" rx="7.5" fill="white"/>
<rect x="0.5" y="0.5" width="46" height="47" rx="7.5" stroke="#242424"/>
<path d="M13.9748 26.3714C14.5808 22.6578 14.8838 20.801 16.0686 19.5938C16.2936 19.3645 16.5388 19.1561 16.8013 18.971C18.1836 17.9961 20.065 17.9961 23.8277 17.9961V17.9961C27.5904 17.9961 29.4718 17.9961 30.8541 18.971C31.1166 19.1561 31.3618 19.3645 31.5868 19.5938C32.7716 20.801 33.0746 22.6578 33.6806 26.3714L34.4196 30.8999C34.6543 32.3377 34.7716 33.0565 34.3723 33.5263C33.9729 33.9961 33.2445 33.9961 31.7878 33.9961H15.8676C14.4108 33.9961 13.6825 33.9961 13.2831 33.5263C12.8838 33.0565 13.0011 32.3377 13.2357 30.8999L13.9748 26.3714Z" stroke="#242424" stroke-width="1.5"/>
<path d="M19.2617 21.332L19.2617 16.5681C19.2617 14.0445 21.3075 11.9987 23.8312 11.9987V11.9987C26.3548 11.9987 28.4006 14.0445 28.4006 16.5681L28.4006 21.332" stroke="#242424" stroke-width="1.5" stroke-linecap="round"/>
</svg>
