<svg width="46" height="47" viewBox="0 0 46 47" fill="none" xmlns="http://www.w3.org/2000/svg">
<rect x="0.5" y="0.5" width="45" height="46" rx="7.5" fill="white"/>
<rect x="0.5" y="0.5" width="45" height="46" rx="7.5" stroke="#242424"/>
<path d="M13.1553 29.6843C13.9811 26.5105 17.2486 25 20.5281 25H24.4917C27.7712 25 31.0387 26.5105 31.8645 29.6843C32.0249 30.3009 32.1529 30.9651 32.2269 31.6686C32.3039 32.401 31.7002 33 30.9638 33H14.056C13.3196 33 12.7159 32.401 12.7929 31.6686C12.8669 30.9651 12.9949 30.3009 13.1553 29.6843Z" stroke="#242424" stroke-width="1.5" stroke-linecap="round"/>
<path d="M26.3264 16.3333C26.3264 18.8799 24.3101 20.9167 21.8566 20.9167C19.4031 20.9167 17.3867 18.8799 17.3867 16.3333C17.3867 13.7867 19.4031 11.75 21.8566 11.75C24.3101 11.75 26.3264 13.7867 26.3264 16.3333Z" stroke="#242424" stroke-width="1.5" stroke-linecap="round"/>
</svg>
